<?xml version="1.0" standalone="no"?>
<!DOCTYPE svg PUBLIC "-//W3C//DTD SVG 20010904//EN"
 "http://www.w3.org/TR/2001/REC-SVG-20010904/DTD/svg10.dtd">
<svg version="1.0" xmlns="http://www.w3.org/2000/svg"
 width="700.000000pt" height="700.000000pt" viewBox="0 0 700.000000 700.000000"
 preserveAspectRatio="xMidYMid meet">
<metadata>
Created by potrace 1.11, written by Peter Selinger 2001-2013
</metadata>
<g transform="translate(0.000000,700.000000) scale(0.100000,-0.100000)"
fill="#000000" stroke="none">
<path d="M3078 6365 c-1 -2 -55 -6 -118 -10 -63 -3 -128 -8 -145 -10 -16 -2
-52 -7 -80 -10 -172 -20 -415 -76 -615 -142 -155 -51 -430 -176 -554 -251 -37
-23 -70 -42 -73 -42 -11 0 -233 -156 -332 -234 -96 -74 -316 -283 -402 -381
-64 -73 -179 -223 -179 -233 0 -6 -4 -12 -8 -14 -9 -3 -92 -130 -151 -229 -24
-42 -120 -233 -149 -299 -52 -119 -145 -397 -173 -519 -6 -25 -13 -54 -15 -63
-54 -230 -79 -460 -79 -733 1 -228 10 -327 47 -510 11 -55 22 -109 24 -121 10
-52 68 -233 108 -336 43 -113 155 -339 182 -369 8 -8 14 -19 14 -23 0 -8 114
-176 147 -217 283 -348 607 -597 1014 -778 117 -52 382 -135 494 -155 17 -3
41 -8 55 -11 184 -36 593 -42 752 -9 13 2 39 7 58 10 19 3 86 19 148 35 373
97 700 285 972 558 237 238 419 543 517 865 l17 58 46 -6 c25 -3 57 -8 73 -11
67 -12 88 -16 172 -30 17 -3 46 -8 65 -11 19 -3 62 -10 95 -15 33 -6 69 -12
80 -13 56 -9 112 -19 130 -22 11 -2 63 -11 115 -20 52 -8 106 -17 120 -20 14
-2 79 -13 145 -24 66 -11 136 -22 155 -25 19 -4 127 -22 240 -40 113 -19 219
-36 235 -39 48 -8 275 -46 304 -50 14 -3 46 -8 71 -11 25 -4 54 -9 65 -12 117
-25 188 -10 249 51 48 47 60 84 72 216 10 106 12 533 3 616 -4 38 -10 105 -14
149 -4 44 -8 82 -10 85 -2 3 -6 30 -10 60 -5 45 -27 159 -60 315 -68 326 -282
836 -485 1155 -251 396 -546 730 -900 1016 -241 195 -606 417 -860 525 -41 17
-93 39 -115 49 -115 50 -326 120 -490 162 -142 36 -133 34 -260 57 -98 19
-141 25 -240 36 -27 3 -66 8 -85 10 -19 3 -107 8 -195 11 -88 3 -165 7 -172 9
-6 2 -13 2 -15 0z"/>
</g>
</svg>
